<?xml version="1.0" encoding="utf-8"?>
<!-- Generator: Adobe Illustrator 23.0.4, SVG Export Plug-In . SVG Version: 6.00 Build 0)  -->
<svg version="1.1" id="Layer_1" xmlns="http://www.w3.org/2000/svg" xmlns:xlink="http://www.w3.org/1999/xlink" x="0px" y="0px"
	 width="167.101px" height="50px" viewBox="0 0 167.101 50" enable-background="new 0 0 167.101 50" xml:space="preserve">
<g>
	<path d="M24.516,27.756c-1.017,2.248-2.569,4.068-4.656,5.458c-2.088,1.392-4.416,2.087-6.984,2.087
		c-3.479,0-6.463-1.244-8.951-3.732c-2.489-2.489-3.733-5.485-3.733-8.992c0-3.505,1.244-6.495,3.733-8.97
		c2.488-2.476,5.471-3.713,8.951-3.713c2.541,0,4.863,0.69,6.964,2.068c2.099,1.379,3.644,3.191,4.635,5.439h-3.443
		c-0.811-1.384-1.889-2.522-3.26-3.386c-1.51-0.949-3.168-1.424-4.975-1.424c-2.638,0-4.903,0.98-6.791,2.941
		c-1.889,1.961-2.835,4.317-2.835,7.067c0,2.751,0.945,5.105,2.835,7.066c1.888,1.961,4.153,2.941,6.791,2.941
		c1.807,0,3.465-0.474,4.975-1.424c1.375-0.866,2.454-2.017,3.267-3.426H24.516z"/>
	<path d="M41.233,20.033c-1.733-1.743-3.856-2.624-6.308-2.624c-2.446,0-4.577,0.881-6.325,2.624
		c-1.739,1.742-2.62,3.868-2.62,6.322c0,2.454,0.881,4.582,2.62,6.327c1.747,1.739,3.873,2.62,6.325,2.62
		c2.454,0,4.576-0.881,6.308-2.623c1.728-1.748,2.603-3.877,2.603-6.324C43.836,23.908,42.961,21.781,41.233,20.033z M39.315,30.772
		c-1.211,1.229-2.648,1.826-4.39,1.826c-1.736,0-3.183-0.597-4.411-1.829c-1.23-1.232-1.832-2.676-1.832-4.414
		c0-1.74,0.602-3.181,1.832-4.411c1.228-1.23,2.669-1.83,4.411-1.83c1.742,0,3.178,0.6,4.396,1.828
		c1.221,1.234,1.813,2.678,1.813,4.414C41.134,28.089,40.541,29.535,39.315,30.772z"/>
	<path d="M63.377,35.302h-2.702v-8.947c0-1.741-0.589-3.184-1.812-4.411c-1.216-1.23-2.651-1.83-4.391-1.83
		c-1.781,0-3.22,0.6-4.43,1.828c-1.225,1.233-1.816,2.674-1.816,4.414v8.947H45.52v-8.947c0-2.452,0.875-4.576,2.609-6.32
		c1.73-1.744,3.85-2.626,6.304-2.626c2.488,0,4.61,0.882,6.344,2.624c1.728,1.742,2.6,3.868,2.6,6.322V35.302z"/>
	<path d="M79.562,29.065c-0.472,0.974-1.14,1.816-2.071,2.453c-1.044,0.72-2.216,1.08-3.487,1.08c-1.733,0-3.178-0.597-4.408-1.827
		c-1.236-1.238-1.833-2.682-1.833-4.416c0-1.733,0.597-3.178,1.833-4.411c1.23-1.23,2.669-1.83,4.408-1.83
		c1.27,0,2.443,0.363,3.487,1.08c0.931,0.634,1.571,1.447,2.047,2.403h2.967c-0.571-1.801-1.641-3.299-3.194-4.447
		c-1.559-1.154-3.344-1.74-5.308-1.74c-2.452,0-4.574,0.881-6.321,2.624c-1.737,1.745-2.618,3.871-2.618,6.322
		c0,2.45,0.881,4.58,2.618,6.327c1.74,1.739,3.868,2.62,6.321,2.62c1.961,0,3.743-0.585,5.308-1.735
		c1.559-1.162,2.64-2.667,3.205-4.479v-0.023H79.562z"/>
	<path d="M101.84,26.355c0-2.452-0.875-4.576-2.606-6.322c-1.729-1.743-3.853-2.624-6.305-2.624c-2.445,0-4.577,0.881-6.325,2.624
		c-1.742,1.742-2.623,3.868-2.623,6.322c0,1.513,0.402,2.733,0.416,2.778c0.422,1.308,1.163,2.499,2.207,3.549
		c1.745,1.739,3.872,2.62,6.325,2.62h5.162v-2.704h-5.162c-1.736,0-3.181-0.597-4.411-1.829c-0.669-0.666-1.047-1.138-1.362-1.973
		c0-0.012-0.302-0.953-0.296-1.888h14.98V26.355z M87.072,24.203c0.375-1.076,1.021-1.978,1.968-2.742
		c1.135-0.907,2.406-1.348,3.875-1.348c1.466,0,2.728,0.441,3.862,1.346c0.948,0.763,1.605,1.667,1.995,2.744H87.072z"/>
	<path d="M118.55,20.07c-1.726-1.742-3.85-2.626-6.305-2.626c-2.454,0-4.577,0.883-6.322,2.624c-1.733,1.735-2.617,3.848-2.62,6.287
		v15.77h2.719v-9.32c1.723,1.678,3.819,2.531,6.223,2.531c2.452,0,4.576-0.883,6.308-2.626c1.728-1.745,2.606-3.871,2.606-6.32
		C121.159,23.942,120.281,21.815,118.55,20.07z M116.635,30.806c-1.218,1.231-2.649,1.83-4.39,1.83c-1.745,0-3.181-0.6-4.411-1.833
		c-1.208-1.204-1.812-2.699-1.812-4.447c0-1.724,0.593-3.156,1.812-4.379c1.23-1.233,2.669-1.83,4.411-1.83
		c1.734,0,3.169,0.596,4.391,1.83c1.225,1.233,1.821,2.676,1.821,4.414C118.457,28.132,117.862,29.573,116.635,30.806z"/>
	<path d="M132.352,35.302h-0.555c-2.451,0-4.58-0.881-6.319-2.62c-1.747-1.75-2.629-3.88-2.629-6.327V12.556h2.711v4.853h6.792
		v2.704h-6.792v6.242c0,1.741,0.596,3.186,1.832,4.414c1.227,1.232,2.669,1.829,4.405,1.829h0.555V35.302z"/>
	<path d="M158.769,17.593c-0.684-1.569-1.628-2.942-2.835-4.12c-2.465-2.413-5.426-3.619-8.883-3.619h-7.96v25.447h7.88h0.081
		c0.025,0,0.053,0,0.08,0c2.438,0,4.69-0.656,6.753-1.969c1.608-1.046,2.921-2.385,3.94-4.02c0.67-1.019,1.166-2.116,1.487-3.296
		c0.322-1.127,0.482-2.278,0.482-3.458C159.794,20.817,159.453,19.161,158.769,17.593z M156.805,23.663
		c-0.096,0.765-0.262,1.492-0.499,2.184c-0.641,1.975-1.788,3.586-3.44,4.832c-1.652,1.245-3.5,1.881-5.544,1.907h-5.525V12.556
		h5.418c2.52,0,4.708,0.889,6.561,2.664c0.807,0.792,1.474,1.694,1.996,2.704c0.737,1.456,1.106,2.999,1.106,4.627
		C156.877,22.921,156.852,23.292,156.805,23.663z"/>
	<path d="M162.021,9.935c0.05,0.046,0.075,0.102,0.075,0.168c0,0.066-0.025,0.122-0.075,0.168c-0.05,0.046-0.116,0.068-0.199,0.068
		h-1.205v3.142c0,0.075-0.027,0.137-0.081,0.186c-0.054,0.05-0.122,0.075-0.205,0.075c-0.083,0-0.151-0.025-0.205-0.075
		c-0.054-0.05-0.081-0.112-0.081-0.186v-3.142h-1.217c-0.075,0-0.137-0.023-0.186-0.068c-0.05-0.045-0.075-0.101-0.075-0.168
		c0-0.066,0.025-0.122,0.075-0.168c0.05-0.045,0.112-0.068,0.186-0.068h2.993C161.905,9.866,161.971,9.889,162.021,9.935z"/>
	<path d="M166.778,9.866c0.083,0,0.157,0.023,0.224,0.068c0.066,0.046,0.099,0.106,0.099,0.18v3.366
		c0,0.075-0.029,0.137-0.087,0.186c-0.058,0.05-0.124,0.075-0.199,0.075c-0.083,0-0.153-0.025-0.211-0.075
		c-0.058-0.05-0.087-0.112-0.087-0.186v-2.521l-1.354,2.385c-0.042,0.091-0.12,0.137-0.236,0.137c-0.124,0-0.219-0.054-0.286-0.161
		l-1.329-2.31v2.472c0,0.075-0.029,0.137-0.087,0.186c-0.058,0.05-0.128,0.075-0.211,0.075c-0.083,0-0.151-0.025-0.205-0.075
		c-0.054-0.05-0.081-0.112-0.081-0.186v-3.366c0-0.075,0.033-0.137,0.099-0.186c0.066-0.05,0.141-0.075,0.224-0.075
		c0.132,0,0.224,0.05,0.273,0.149l1.59,2.745l1.59-2.745C166.554,9.912,166.645,9.866,166.778,9.866z"/>
</g>
</svg>
